<?xml version="1.0" encoding="utf-8"?>
<!-- Generator: Adobe Illustrator 22.0.1, SVG Export Plug-In . SVG Version: 6.00 Build 0)  -->
<svg version="1.1" id="Слой_1" xmlns="http://www.w3.org/2000/svg" xmlns:xlink="http://www.w3.org/1999/xlink" x="0px" y="0px"
	 viewBox="0 0 1841.9 1826.7" style="enable-background:new 0 0 1841.9 1826.7;" xml:space="preserve">
<g>
	<path d="M1740.5,507.5C1655.3,331.5,1482,157.9,1302,83.3c-285.7-143.2-681.3-95.5-929.9,95.5C62.8,413.8-66.3,787.9,32.7,1165.2
		c67.9,291.7,347.5,567.1,636.4,639.9c365.9,93,743.6-20.5,979.4-325.3C1859.6,1221.7,1895.3,803.1,1740.5,507.5z M1581.3,1462.2
		c-213.2,245.4-506.3,355.3-830.9,297c-193-48.8-386.1-134.4-509.1-314.7C39.8,1204.7,3.4,800.3,153,525.2
		C316,214.1,638,37.3,983.8,58.5c210.4,21.2,394.2,106.1,551.6,254.6c67.5,77.4,123.4,159.8,166.2,247.5
		C1836.6,841.3,1785.7,1229.5,1581.3,1462.2z" fill="#338acc"/>
	<path d="M1546,373.2h-21.2c-10.2-5.3-27.9-7.1-28.3-21.2c3.5-6,9.9-6,14.1-10.6c-15.6-9.9-6.7-29.3-14.1-42.4
		c-25.8-7.8-4.6,22.6-21.2,28.3c-26.9-3.5-47,8.8-67.2-10.6l7.1-7.1c-2.5-2.8-9.9-8.9-17.7-7.1c-4.3,32.5-35.7,11.7-60.1,17.7
		c-21.6-5-7.4-20.5-10.6-35.4c-6.7,1.1-12-1.8-17.7-3.5c-2.5,43.8-50.2,22.6-77.8,28.3c-28.3-13.1-89.1,15.5-84.9-38.9
		c-19.8-4.6-32.9,6.4-46,17.7c-56.5-32.9-68.9,61.2-116.7,28.3c-3.2-20.9,3.9-37.5,14.1-53c27.2-29-4.6-60.1-10.6-88.4
		c-26.5-61.9-105.4-84.9-162.6-53C761.8,153,755.5,224,761.1,284.8c-3.5,6.4-11.7,2.5-17.7,3.5c-50.6,36.4-83.8,92.6-120.2,141.4
		c-4.2,123.4-29.3,237.6-60.1,350c5.3,4.2,13.4,1.1,17.7,7.1c-29.3,34.3,9.9,66.1,7.1,102.5c-39.6,119.2-78.8,238.3-102.5,364.2
		c-12.7,30.1-44.9,28.3-67.2,42.4c-30.8,47-79.9,86.6-91.9,141.4c20.2,40,13.4,100.4,60.1,120.2c24,44.9,66.1,4.6,99,7.1
		c18.7-31.8-4.6-63.7-7.1-95.5c32.5-13.4,75.3-2.1,109.6-10.6c25.8-56.6,46.7-115.3,77.8-169.7c20.9-89.7,53-176.4,95.5-258.1
		c8.5-6.4-2.8-20.5,10.6-24.7c58,14.5,86.3,78.5,123.7,120.2c15.6,43.8,68.9,72.5,91.9,113.1c22.3,83.8,39.6,169.7,67.2,251
		c5.7,44.2-15.6,86.6,24.8,116.7c49.9,32.5,104.3,85.9,169.7,49.5v-46c-18.7-55.9-75-96.2-67.2-162.6c13.1-90.2-37.8-153.8-24.7-244
		c-34.3-34.3-46-77.8-77.8-113.1c-10.2-25.1-43.1-41-42.4-70.7c7.1-6,12.7-15.6,21.2-17.7c-0.4-41.4-37.1-70.4-60.1-99
		c-20.9-33.2-56.9-60.5-74.3-95.5l-28.3,7.1c-2.5-22.3-9.9-42.4-7.1-67.2c2.1-15.6,18.7-25.8,35.4-21.2
		c8.5-32.2,4.6-69.3,10.6-102.5c8.8-17.3,27.9-10.6,42.4-14.1c28.3,11.3,53.7-4.6,77.8-14.1l3.5,3.5c8.9,3.9,11.7-7.1,17.7-10.6
		c48.8,15.6,61.2-48.8,95.5-67.2l67.2,14.1c10.6-0.4,17-5.7,14.1-17.7c6.4-18.7-13.4-38.2,3.5-49.5c23,55.2,37.5,113.5,74.2,162.6
		c11-2.1,20.5-8.1,28.3-17.7c-29.4-49.8-59-104-56.6-162.6c13.4,2.1,21.9,15.6,35.4,17.7c6.7-8.1,13.8-25.8,28.3-21.2
		c20.5-91.2,122.7-44.9,183.8-67.2C1547.8,378.1,1544.9,376.4,1546,373.2z M994.4,458c-13.4-2.1-29-6.4-35.3-17.7l56.6-46
		c30.4-2.8,56.6,4.6,84.8,7.1C1080.7,442.5,1015.6,405.4,994.4,458z" fill="#338acc"/>
</g>
</svg>
