<?xml version="1.0" encoding="utf-8"?>
<!-- Generator: Adobe Illustrator 22.0.1, SVG Export Plug-In . SVG Version: 6.00 Build 0)  -->
<svg version="1.1" id="Слой_1" xmlns="http://www.w3.org/2000/svg" xmlns:xlink="http://www.w3.org/1999/xlink" x="0px" y="0px"
	 viewBox="0 0 529.7 604.4" style="enable-background:new 0 0 529.7 604.4;" xml:space="preserve">
<g>
	<path d="M2,521.5c15.1,0.1,30.1,0.1,45.2,0.3c22.3,0.3,36.6,11.6,39.1,30.8c3.2,24.3-8.8,44.6-30,50.2
		c-8.2,2.2-16.6,1.3-25,0.7c-7.6-0.6-15.2-1.5-22.3-2.2c2.7-24.1,1-47.8,1.1-71.5c0-4.7-3.2-7.2-8.2-6.4C2,522.9,2,522.2,2,521.5z
		 M73.4,564.4c0.1-23.7-15.4-37.7-41.2-37.7c-6.6,0-8.8,2.2-8.6,8.7c0.4,16.8,0.4,33.6,0.1,50.4c-0.2,8.5,4,12.1,11.8,13.2
		C57.6,602.1,73.3,587.8,73.4,564.4z" fill="#130f49"/>
	<path d="M531.9,588c-1.8,14.9-12.2,14.8-23.7,14.1c-10.5-0.6-21.1-0.1-33.3-0.1c6.7-6.6,12.4-12.1,17.8-17.8
		c9.4-9.8,17.3-20.4,20.6-34c1.4-5.8,0.9-11.4-1.6-16.7c-5-10.6-16.8-12.4-24.7-3.9c-1.7,1.9-3.2,3.9-5.2,6.3
		c-4.1-8.8-1.6-13.3,7-15.1c7-1.5,14.1-1.8,20.9-0.3c16.2,3.6,22.6,16.3,16.5,32.2c-5.1,13.3-15.1,22.7-25.2,32.2
		c-2.3,2.2-6,3.2-6.7,8.5c13.6-0.1,27.2,2.9,37.5-9.6C531.9,585.3,531.9,586.7,531.9,588z" fill="#130f49"/>
	<path d="M163.7,603.8c-25.9-0.1-44.4-17.7-44.1-42c0.3-25.1,18.7-42.1,45.4-42c26.1,0.1,44.1,16.7,44.1,40.7
		C209.1,585.9,190.3,603.9,163.7,603.8z M193.9,566.2c0.1-17.7-5.5-30.4-19.3-38.2c-13.2-7.5-29.5-3.1-35.4,9.8
		c-7.8,17.1-6.4,34.1,4.5,49.5c7.3,10.2,18.2,13.7,30.3,11.2c11.4-2.3,16.1-11.1,18.2-21.6C193,572.7,193.6,568.4,193.9,566.2z" fill="#130f49"/>
	<path d="M339.6,601.6c11.4-27.5,22.6-54.5,34.9-84.3c6.6,16.1,12.3,29.2,17.4,42.5c4.2,10.9,6.3,23.7,24,18.7
		c-13.7,8.1-13.7,8.1-5.6,21.9c-12.8,3.9-15,3.1-19.9-8.8c-2.2-5.4-5.2-8.2-11.2-7.8c-4.7,0.3-9.5,0.4-14.1-0.2
		c-8.6-1.2-12.8,3.2-13.5,10.9C350.7,603.2,346.3,603.9,339.6,601.6z M372.7,544.9c-0.9,0.1-1.7,0.1-2.6,0.2
		c-3.6,9.3-7.2,18.5-10.8,27.8c-0.7,1.8-1.8,4.9,0.6,5.1c7.3,0.6,14.7,0.6,21.9,0.1c2.4-0.2,1.8-3.3,1.1-5.1
		C379.7,563.5,376.2,554.2,372.7,544.9z" fill="#130f49"/>
	<path d="M308.2,531.8c-2.5-1.3-4.7-2.8-7.1-3.5c-15.7-5-21.4-0.9-21.1,15.2c0.3,17.7,0.3,35.5,1.5,53.2
		c0.5,6.8-3.3,5.5-6.4,5.2c-3.3-0.3-9.2,3.5-9-4.7c0.4-18.8,0.4-37.5,0.5-56.3c0.1-14,0.1-14-14.4-13.7c-4.7,0.1-9.5-0.1-13.7,3.9
		c-1.6-9,0.9-10.6,9.3-10c17.7,1.2,35.5,1.3,53.2,0.2C310.8,520.9,310.7,524.5,308.2,531.8z" fill="#130f49"/>
</g>
<g>
	<path d="M42.2,333.2c1.4-93.6-3.6-166.3-7.5-239c-1.4-25.1-2.4-50.3-3.9-75.4c-0.3-5.7,2.3-6.7,7-7.3
		C53.1,9.5,68.6,10,84,8.9c88.7-6.3,177.5-11.1,266.5-8c41.5,1.4,83,5.4,124.4,8.8c7.5,0.6,17.1-2.8,22.1,3.1
		c4.9,5.9-0.3,14.9,0,22.5c2.6,62.4,1.3,124.9,1.3,187.3c0,76.2-0.2,152.4,0.1,228.6c0,9.6-2,12.6-11.8,9.6
		c-38.6-11.9-77.7-5.7-116.7-2.8c-27.1,2-54.1,4.8-81.2,6.5c-23.7,1.5-46.7-4.4-69.5-9.2c-33.7-7-67-7.1-100.7-1.5
		c-21.9,3.7-44.1,3.2-66.3,2.7c-14.3-0.3-14.8-1.3-14.3-15.4C39.6,398.3,41.3,355.4,42.2,333.2z M383.9,393.1
		c8.4,0,13.8-0.5,19.1,0.1c8.6,0.9,13-2.5,16.8-10.4c10.9-22.4,19.9-45.2,24.5-69.9c1.7-9.2,0.4-14-7.6-19.3
		C330.7,224,225.1,154,119.4,84.1c-16.7-11.1-16.7-11.1-32.7,1.2c-9.7,7.4-9.6,7.4-1.2,16.2C171.1,192.3,257,282.8,342.2,374
		C354.9,387.6,367,398.4,383.9,393.1z M138.2,399.1c0,0,3.1-0.2,5.9-1c20.6-5.8,40-15.5,61-20c6.7-1.4,3.2-4.9,0.7-7.7
		c-26-29.5-55.7-55.2-84.9-81.4c-3.9-3.5-6.5-4.3-8.8,1.3c-9.2,22.6-18.5,45.2-27.7,67.8c-2.3,5.5-0.7,9.7,4.4,12.8
		c10.4,6.2,19.7,13.9,28.9,21.8C122.8,397.1,128.5,399.5,138.2,399.1z M410.6,106.1c0.4-2.9-0.8-5.4-2.9-7.1
		c-8.5-7.3-18.5-12.1-28.2-17.4c-2.1-1.1-4-0.4-5.8,0.5c-18.9,9.2-39.7,12-59.8,17.1c-2.3,0.6-6.1,0-6.4,3.6
		c-0.2,2.6,2.5,3.8,4.3,5.2c18.3,14.2,36.6,28.3,55.1,42.3c8,6.1,16.2,12,24.6,17.6c3.8,2.5,9.7,5.3,10.9-1.9
		C405.8,146.1,408,126.1,410.6,106.1z" fill="#130f49"/>
</g>
</svg>
