<?xml version="1.0" encoding="utf-8"?>
<!-- Generator: Adobe Illustrator 22.0.1, SVG Export Plug-In . SVG Version: 6.00 Build 0)  -->
<svg version="1.1" id="Слой_1" xmlns="http://www.w3.org/2000/svg" xmlns:xlink="http://www.w3.org/1999/xlink" x="0px" y="0px"
	 viewBox="0 0 1013.9 604.4" style="enable-background:new 0 0 1013.9 604.4;" xml:space="preserve">
<g>
	<g>
		<path d="M1022.8,112c0,21.4,0,42.8,0,64.2c-10.6,3.1-28.2-6.3-28.2,15.7c0,75.1,0.1,150.2-0.1,225.3c0,11,4.9,15.5,15.6,15
			c4.2-0.2,8.5,0.5,12.7,0.8c0,21.4,0,42.8,0,64.2c-28.2,0.8-28.2,0.8-28.3,28.6c0,18.2,0,36.4,0,54.6c-0.1,26.8-0.1,26.9-26.4,26.9
			c-157.3,0-314.6,0-471.8,0c-143.9,0-287.8,0-431.7,0c-20.7,0-21.7-1-21.8-21.8c-0.2-24.1-0.2-48.1-0.1-72.2
			c0-9.4-3-15.9-13.6-15.5c-29.5,1.1-24.7-6.9-25.1-28.5c-0.1-5.3,0.5-10.8-0.1-16c-1.8-16,4.7-23.1,20.9-21.1
			c14.5,1.8,18.3-5.9,18.1-19.1c-0.5-32.6-0.2-65.3-0.2-97.9c0-40.1,0-80.2,0-120.4c0-9.1-0.5-16.8-12.8-18c-26-2.6-25.9-3-26-28.9
			c0-4.8,0.5-9.7-0.1-14.4c-1.8-15.6,4-23.6,20.5-21.8c14.1,1.5,18.7-5.5,18.5-19c-0.4-29.9,0.2-59.9,0.5-89.9
			c316.9,0,633.7,0,950.6,0c0.2,29.1,1.1,58.3,0.4,87.4c-0.4,15.3,4.1,23.5,20.6,21.6C1017.4,111.5,1020.1,111.9,1022.8,112z
			 M520.2,73.2c-126.3,0-252.6,0-378.9,0c-26.8,0-27.1,0.3-27.1,26.8c0,136.5,0,272.9,0,409.4c0,26.4,0.3,26.8,27.1,26.8
			c251.5,0,503,0,754.5,0c26.8,0,27.1-0.3,27.1-26.8c0-136.5,0-272.9,0-409.4c0-26.4-0.3-26.8-27.1-26.8
			C770.6,73.2,645.4,73.2,520.2,73.2z" fill="#922519"/>
		<path d="M354.2,301.5c0-54,0.4-108.1-0.3-162.1c-0.2-16,5.3-21.8,21.4-21.5c50,0.9,43.8-4.7,44,43.7c0.3,83.4,0,166.9,0.2,250.3
			c0,8.8-1.9,19,11.9,20.3c14.9,1.4,18.9-2.2,18.9-19.6c0.1-89.9,0-179.7,0.1-269.6c0-24.5,0.3-24.9,25.3-24.9
			c44,0.1,40-3.8,40,39.4c0.1,100,0.1,200,0,300.1c0,25.6-0.8,26.5-25.8,26.6c-38.5,0.1-77-0.4-115.5,0.2
			c-15.2,0.2-20.6-5.6-20.4-20.8C354.6,409.5,354.2,355.5,354.2,301.5z" fill="#922519"/>
		<path d="M550.1,402.4c0-17.1,0.1-34.2,0-51.3c0-11,1.2-21.5-9.6-30.3c-7.8-6.4-4.1-46.7,3.7-54.3c5.9-5.7,5.8-12.3,5.8-19.1
			c0.1-35.8,0.6-71.7-0.2-107.5c-0.3-15.6,4.4-22.4,20.9-22c32.6,0.9,65.2,0.5,97.9,0.2c12.8-0.1,18.2,4.8,18,18
			c-0.5,41.2-0.2,82.4-0.2,123.5c0,7.5-0.2,13.9-9.5,17.9c-10,4.2-9.8,14.6,0.1,19.1c8.3,3.7,9.4,9.2,9.4,16.4
			c0,51.9-0.1,103.7,0.1,155.6c0.1,11.1-4.9,15.5-15.4,15.5c-35.3,0-70.6,0-105.9,0c-10.7,0-15.3-5.1-15.2-15.9
			C550.4,446.3,550.1,424.3,550.1,402.4C550.1,402.4,550.1,402.4,550.1,402.4z M630.9,381.6c0-12.8,0.2-25.6-0.1-38.3
			c-0.2-7.3-3.5-12.3-11.7-12c-7.5,0.3-10,5.4-10.1,11.9c-0.2,25.6-0.1,51.1,0,76.7c0,6.5,2.4,11.5,10,11.9
			c8.2,0.4,11.7-4.4,11.8-11.8C631.1,407.2,630.9,394.4,630.9,381.6z M630.8,219C630.8,219,630.8,219,630.8,219
			c0.1-10.1,0.3-20.2,0-30.3c-0.2-6.6-3.3-11.2-10.6-11.4c-7.3-0.2-10.9,3.9-11,10.8c-0.2,20.7-0.2,41.4-0.1,62.1
			c0,6.7,3.1,11.3,10.5,11.3c7.2,0.1,10.9-4,11.1-10.8C631,240.2,630.8,229.6,630.8,219z" fill="#922519"/>
		<path d="M729.7,301.4c0-54.6,0.4-109.2-0.3-163.8c-0.2-14.8,5.4-19.9,19.7-19.7c34.2,0.5,68.5,0.6,102.7,0
			c14.7-0.3,20.1,5.9,19.8,20.1c-0.5,21.4-0.4,42.8,0,64.2c0.2,13.3-4.8,20.3-18.8,19.2c-5.3-0.4-10.7-0.2-16-0.2
			c-9-0.1-14.1-4.1-13.8-13.6c0.1-3.7-0.5-7.5-0.1-11.2c2-16.2-6.3-19.8-20.9-19.9c-14.6,0-19.8,5.1-19.6,19.7
			c0.5,72.2,0.4,144.5,0.1,216.7c-0.1,13,3.2,19.8,18,19.6c14.6-0.2,16.5-7.9,16.3-19.5c-0.4-21.4,0-42.8-0.1-64.2
			c0-11.6-1.6-21.2-9.1-32.2c-9.1-13.3-4.2-32-2-48.4c0.2-1.7,2.5-4.1,4.1-4.4c18.6-2.9,37.3-3.1,55.8,0c6,1,5.9,8.4,5.9,13.7
			c0.1,63.7,0,127.4,0.1,191c0,10.7-5.2,15.6-15.8,15.6c-36.9-0.1-73.8-0.2-110.8,0c-13.4,0.1-15.4-7.8-15.3-18.9
			C729.8,410.6,729.7,356,729.7,301.4z" fill="#922519"/>
		<path d="M320.3,224.3c0,29.9-0.3,59.9,0.1,89.8c0.2,12.2-4.2,17.6-16.8,17.2c-17.6-0.6-35.3,0.4-52.9-0.2
			c-13.4-0.5-17.9,5.3-17.8,18.1c0.4,37.9-0.5,75.9,0.3,113.8c0.3,16.3-6.3,21.4-21.8,21.4c-36.3,0.2-36.3,0.7-36.3-35.6
			c0-24,0.2-48.1-0.1-72.1c-0.1-13.5,2.5-26.9-10.8-38c-8.3-6.9-2.7-50.6,5.4-58.3c6-5.6,5.4-12.5,5.4-19.3
			c0.1-40.1,0-80.2,0.2-120.2c0.1-21,1.9-22.7,23.1-22.8c34.2-0.1,68.4,0.3,102.6-0.2c14.3-0.2,20,5.1,19.6,19.8
			C319.7,166.6,320.3,195.4,320.3,224.3z M261.2,230.3C261.2,230.3,261.1,230.3,261.2,230.3c-0.1-13.8,0.1-27.7-0.1-41.5
			c-0.1-8.8-5.6-11.8-13.7-11.8c-8.2,0-13.5,3-13.5,11.9c-0.1,26.6,0,53.2-0.1,79.9c0,8.6,4.3,12.4,12.9,12.5
			c8.9,0.1,14.5-3,14.5-12.6C261.2,255.8,261.2,243,261.2,230.3z" fill="#922519"/>
	</g>
</g>
</svg>
