<?xml version="1.0" encoding="utf-8"?>
<!-- Generator: Adobe Illustrator 22.0.1, SVG Export Plug-In . SVG Version: 6.00 Build 0)  -->
<svg version="1.1" id="Слой_1" xmlns="http://www.w3.org/2000/svg" xmlns:xlink="http://www.w3.org/1999/xlink" x="0px" y="0px"
   viewBox="0 0 233 233" style="enable-background:new 0 0 233 233;" xml:space="preserve">
<style type="text/css">
</style>
<path class="st0" d="M103.7,171.2C98.4,184,83.8,190,71.1,184.7c-5.8-2.4-10.3-6.9-12.8-12.2l14.4,6c9.4,3.9,20.1-0.5,24-9.9
  c3.9-9.4-0.5-20.1-9.9-24l-14.9-6.2c5.8-2.2,12.3-2.3,18.4,0.3c6.2,2.6,10.9,7.4,13.5,13.5C106.2,158.3,106.2,165.1,103.7,171.2z" fill="#fc6e06"/>
<path class="st1" d="M154.8,57.8c-16.3,0-29.5,13.3-29.5,29.5c0,16.3,13.2,29.5,29.5,29.5c16.3,0,29.5-13.3,29.5-29.5
  C184.2,71,171,57.8,154.8,57.8z M154.8,109.5c-12.2,0-22.1-9.9-22.1-22.2c0-12.3,9.9-22.2,22.1-22.2C167,65.1,177,75,177,87.3
  C177,99.5,167,109.5,154.8,109.5z"  fill="#fc6e06"/>
<path class="st2" d="M233,116.5c0,64.3-52.2,116.5-116.5,116.5C64,233,19.6,198.3,5,150.5l44.1,18.2c2.2,9.9,9,18.6,19.1,22.8
  c16.4,6.9,35.4-1,42.2-17.4c1.8-4.3,2.6-8.8,2.5-13.3l40.8-29.1c0.3,0,0.7,0,1,0c24.4,0,44.3-19.9,44.3-44.3S179.2,43,154.8,43
  c-24.4,0-44.3,19.9-44.3,44.3c0,0.2,0,0.4,0,0.6L82,129.3c-4.6-0.2-9.3,0.6-13.6,2.4c-1.9,0.8-3.8,1.8-5.5,2.9L0.3,108.8
  c0,0,0,0,0-0.1C4.2,48,54.8,0,116.5,0C180.8,0,233,52.2,233,116.5z" fill="#fc6e06"/>
</svg>
