<?xml version="1.0" encoding="utf-8"?>
<!-- Generator: Adobe Illustrator 21.0.0, SVG Export Plug-In . SVG Version: 6.00 Build 0)  -->
<svg version="1.1" id="Capa_1" xmlns="http://www.w3.org/2000/svg" xmlns:xlink="http://www.w3.org/1999/xlink" x="0px" y="0px"
	 viewBox="0 0 49.9 13.1" style="enable-background:new 0 0 49.9 13.1;" xml:space="preserve">
<style type="text/css">
	.st0{fill:#7B828C;}
</style>
<g>
	<g>
		<rect x="46.2" y="6.8" transform="matrix(0.742 -0.6704 0.6704 0.742 7.0264 33.4841)" class="st0" width="1.6" height="1.6"/>
	</g>
</g>
<g>
	<g>
		<rect x="43.6" y="7.9" transform="matrix(0.7432 -0.669 0.669 0.7432 5.4901 32.1748)" class="st0" width="2.1" height="2.1"/>
	</g>
</g>
<g>
	<g>
		<rect x="48.6" y="6.3" transform="matrix(0.7428 -0.6695 0.6695 0.7428 8.0419 34.6706)" class="st0" width="1" height="1"/>
	</g>
</g>
<g>
	<g>
		<rect x="44.1" y="2" transform="matrix(0.7432 -0.669 0.669 0.7432 9.673 30.7773)" class="st0" width="1.6" height="1.6"/>
	</g>
</g>
<g>
	<g>
		<rect x="47.6" y="4" transform="matrix(0.742 -0.6704 0.6704 0.742 9.3808 33.4501)" class="st0" width="1" height="1"/>
	</g>
</g>
<g>
	<g>
		<polygon class="st0" points="5.2,3.9 4.5,7.8 4.4,7.8 3.4,3.9 2.7,3.9 1.7,7.8 1.7,7.8 0.8,3.9 0,3.9 1.2,9.2 2,9.2 3,5.4 
			3.1,5.4 4.1,9.2 4.9,9.2 6.1,3.9 		"/>
	</g>
</g>
<g>
	<g>
		<rect x="42.5" y="5.2" transform="matrix(0.7432 -0.669 0.669 0.7432 7.0155 30.7382)" class="st0" width="2.1" height="2.1"/>
	</g>
</g>
<g>
	<g>
		<rect x="41.4" y="2.5" transform="matrix(0.7432 -0.669 0.669 0.7432 8.5103 29.308)" class="st0" width="2.1" height="2.1"/>
	</g>
</g>
<g>
	<g>
		<rect x="45.2" y="4.4" transform="matrix(0.7423 -0.67 0.67 0.7423 8.4097 32.155)" class="st0" width="1.6" height="1.6"/>
	</g>
</g>
<g>
	<g>
		<rect x="46.6" y="1.7" transform="matrix(0.7428 -0.6695 0.6695 0.7428 10.6387 32.1357)" class="st0" width="1" height="1"/>
	</g>
</g>
<g>
	<g>
		<path class="st0" d="M34.4,5.5l-0.9,2.8h0l-1-2.8h-0.8l1.4,3.7c-0.2,0.6-0.5,1-1,1v0.6c0.9,0,1.3-0.5,1.7-1.6l1.4-3.7
			C35.2,5.5,34.4,5.5,34.4,5.5z"/>
	</g>
</g>
<g>
	<g>
		<path class="st0" d="M9.5,7.2C9.5,5.9,9,5.3,8,5.3c-1.1,0-1.7,0.8-1.7,2c0,1.2,0.5,2,1.8,2c0.5,0,1-0.1,1.3-0.3V8.4
			C9,8.6,8.6,8.7,8.2,8.7c-0.8,0-1.1-0.4-1.1-1.3h2.4V7.2z M7.1,6.9C7.2,6.2,7.5,5.8,8,5.8c0.4,0,0.8,0.3,0.8,1.1H7.1z"/>
	</g>
</g>
<g>
	<g>
		<rect x="47.3" y="9.2" transform="matrix(0.7429 -0.6694 0.6694 0.7429 5.6717 34.7292)" class="st0" width="1.6" height="1.6"/>
	</g>
</g>
<g>
	<g>
		<path class="st0" d="M31.4,7.2c0-1.2-0.6-1.8-1.5-1.8c-1.1,0-1.7,0.8-1.7,2c0,1.2,0.5,2,1.8,2c0.5,0,1-0.1,1.3-0.3V8.4
			c-0.4,0.2-0.8,0.4-1.2,0.4c-0.8,0-1.1-0.4-1.1-1.3h2.4C31.4,7.4,31.4,7.2,31.4,7.2z M29,6.9c0.1-0.7,0.4-1.1,0.9-1.1
			c0.4,0,0.8,0.3,0.8,1.1H29z"/>
	</g>
</g>
<g>
	<g>
		<path class="st0" d="M46,10.2l-1.5,1.4l-2.6-2.9l0.7-0.6l-1.8-2l0.7-0.6l-1.8-2l2.9-2.6l0.9,1L45,0.5L46,1.4l0.6-0.5
			c-0.1-0.1-0.3-0.1-0.4-0.2C45.3,0.2,44.3,0,43.3,0c-3.6,0-6.6,3-6.6,6.6c0,3.6,3,6.6,6.6,6.6c1.2,0,2.3-0.3,3.2-0.9
			c0.3-0.2,0.6-0.4,0.9-0.6L46,10.2z"/>
	</g>
</g>
<g>
	<g>
		<path class="st0" d="M12,5.3c-0.4,0-0.8,0.2-1,0.3V3.5l-0.8,0.2v5.2c0.4,0.2,1.1,0.4,1.5,0.4c1.1,0,1.8-0.7,1.8-2.1
			C13.4,6,12.9,5.3,12,5.3z M11.7,8.7c-0.2,0-0.4,0-0.7-0.1V6.2c0.3-0.2,0.5-0.2,0.8-0.2c0.5,0,0.8,0.3,0.8,1.3
			C12.7,8.4,12.2,8.7,11.7,8.7z"/>
	</g>
</g>
<g>
	<g>
		<path class="st0" d="M26.3,5.3c-0.9,0-1.6,0.4-1.9,0.6v3.3h0.8v-3c0.2-0.1,0.6-0.3,0.9-0.3c0.4,0,0.7,0.1,0.7,0.7v2.5h0.8V6.5
			C27.5,5.7,27.2,5.3,26.3,5.3z"/>
	</g>
</g>
<g>
	<g>
		<polygon class="st0" points="18.5,3.9 16.9,8.1 16.9,8.1 15.2,3.9 14.3,3.9 14.3,9.2 14.9,9.2 14.9,5.4 15,5.4 16.5,9.2 17,9.2 
			18.6,5.3 18.6,5.3 18.6,9.2 19.4,9.2 19.4,3.9 		"/>
	</g>
</g>
<g>
	<g>
		<path class="st0" d="M22,5.3c-1,0-1.7,0.7-1.7,2c0,1.3,0.7,2,1.7,2c1,0,1.7-0.7,1.7-2C23.7,6,23,5.3,22,5.3z M22,8.7
			c-0.5,0-0.9-0.4-0.9-1.4c0-1,0.4-1.4,0.9-1.4c0.5,0,0.9,0.4,0.9,1.4C22.9,8.3,22.5,8.7,22,8.7z"/>
	</g>
</g>
</svg>
