<?xml version="1.0" encoding="utf-8"?>
<!-- Generator: Adobe Illustrator 21.0.0, SVG Export Plug-In . SVG Version: 6.00 Build 0)  -->
<svg version="1.1" id="Capa_1" xmlns="http://www.w3.org/2000/svg" xmlns:xlink="http://www.w3.org/1999/xlink" x="0px" y="0px"
	 viewBox="0 0 49.1 17.1" style="enable-background:new 0 0 49.1 17.1;" xml:space="preserve">
<style type="text/css">
	.st0{fill:#7B828C;}
</style>
<g>
	<g>
		<path class="st0" d="M49.1,9.3c-0.1-0.4-0.4-0.6-0.8-0.6c-0.1,0-0.3,0-0.4,0c-0.3,0-0.3,0.1-0.3,0.3c0,1,0,2.1,0,3.1
			c0,0.5-0.5,1.1-1.2,1.3c-2,0.4-4,0.9-6,1.3c-0.2,0-0.5,0.1-0.7,0.1c-0.1,0-0.2-0.1-0.3-0.1c0,0,0.1-0.2,0.1-0.2
			c0.1-0.1,0.2-0.1,0.3-0.2c0.4-0.1,0.7-0.3,1.1-0.4c1.5-0.5,3-1,4.5-1.5c0.7-0.2,1-0.7,1-1.2c0-1.8,0-3.6,0-5.5
			c0-0.3-0.2-0.5-0.5-0.7c-0.4-0.1-0.7,0-1.1,0.1c-2.1,1-4.2,2-6.3,3c-0.6,0.3-1,0.7-1,1.3c0,1.7,0,3.4,0,5.2c0,0.1,0,0.2,0,0.3
			c0.2,0.6,0.7,0.9,1.5,0.9c1.5,0,3,0,4.4,0c1.5,0,2.9,0,4.4,0c0.3,0,0.6-0.1,0.9-0.3c0.3-0.3,0.3-0.6,0.3-0.9c0-1.7,0-3.4,0-5
			C49.1,9.5,49.1,9.4,49.1,9.3z M42.9,8.8c0.1-0.4,0.5-0.6,1-0.7c0.3,0,0.6,0.2,0.7,0.5c0.1,0.5-0.5,1-1.1,1
			C43,9.5,42.7,9.2,42.9,8.8z"/>
	</g>
</g>
<g>
	<g>
		<path class="st0" d="M7.6,2.1c0,0.5,0,1.1,0,1.6c-0.4,0-0.8,0-1.2,0c0-0.5,0-1.1,0-1.6c-0.2,0-0.4,0-0.6,0c0,1.3,0,2.6,0,3.9
			C6,6,6.2,6,6.4,6c0-0.6,0-1.2,0-1.8c0.4,0,0.8,0,1.2,0c0,0.6,0,1.2,0,1.8C7.8,6,8,6,8.2,6c0-1.3,0-2.6,0-3.9
			C8,2.1,7.8,2.1,7.6,2.1z"/>
	</g>
</g>
<g>
	<g>
		<path class="st0" d="M23.3,12.9c-0.2-0.9-0.9-1.5-2-1.6c-0.4,0-0.9,0-1.4,0c0-0.8,0-1.6,0-2.5c-0.3,0-0.6,0-1,0c0,2.3,0,4.5,0,6.9
			c0.7,0,1.4,0,2.1,0c1-0.1,1.8-0.5,2.2-1.3C23.4,13.9,23.4,13.4,23.3,12.9z M21.8,13.9c-0.2,0.8-1,1.1-1.9,0.9c0-0.8,0-1.7,0-2.5
			c0-0.1,0.1-0.1,0.2-0.2c0.9-0.2,1.6,0.1,1.7,0.9C21.9,13.3,21.9,13.6,21.8,13.9z"/>
	</g>
</g>
<g>
	<g>
		<path class="st0" d="M4.3,0C4,0,3.6,0,3.3,0C2.8,0,2.4,0.1,2.1,0.4C1,1.4,1.3,3.3,2.7,3.7C2.2,4.5,1.7,5.2,1.2,6
			c0.2,0,0.4,0,0.5,0C2,6,2.1,6,2.2,5.8C2.6,5.2,2.9,4.6,3.3,4C3.5,3.7,3.5,3.7,4,3.8C4,4.5,4,5.3,4,6c0.3,0,0.5,0,0.7,0
			c0-0.1,0-0.2,0-0.3c0-1.8,0-3.6,0-5.4C4.7,0,4.7,0,4.3,0z M3.9,3.2c-0.5,0-1,0.1-1.4-0.2C2.1,2.5,2,2,2.2,1.5c0,0,0-0.1,0.1-0.1
			C2.6,0.6,3,0.4,3.9,0.6C3.9,1.4,3.9,2.3,3.9,3.2z"/>
	</g>
</g>
<g>
	<g>
		<path class="st0" d="M22,5.4c-1.1,0.4-1.8,0-2-0.9c-0.1-0.5-0.1-1,0.1-1.4c0.2-0.6,0.7-0.8,1.5-0.6c0,0,0,0,0.1,0
			c0.1-0.1,0.2-0.2,0.2-0.3c-0.6-0.4-1.5-0.3-2,0.2c-0.4,0.4-0.5,0.9-0.6,1.4c-0.1,0.6,0,1.1,0.4,1.6C20.1,6,20.8,6.2,21.5,6
			C22,5.9,22.1,5.9,22,5.4z"/>
	</g>
</g>
<g>
	<g>
		<path class="st0" d="M5.2,14.9c0-2,0-4,0-6.1c-1.2,0-2.4,0-3.6,0c0,1-0.1,2-0.2,3.1c-0.1,0.9-0.3,1.8-0.7,2.6
			c-0.1,0.3-0.3,0.5-0.7,0.4c0,0,0,0-0.1,0c0,0.7,0,1.5,0,2.2c0.4,0,0.7,0,1.1,0c0-0.5,0-1,0-1.5c1.3,0,2.6,0,3.9,0c0,0.5,0,1,0,1.5
			c0.4,0,0.7,0,1,0c0-0.8,0-1.5,0-2.3C5.8,14.9,5.5,14.9,5.2,14.9z M4,14.9c-0.8,0-1.6,0-2.4,0c0.2-0.5,0.4-1,0.6-1.5
			c0.3-1,0.3-2.1,0.3-3.2c0-0.2,0-0.3,0-0.5c0.5,0,1,0,1.5,0C4,11.4,4,13.1,4,14.9z"/>
	</g>
</g>
<g>
	<g>
		<path class="st0" d="M15.4,5.5c-0.2,0.1-0.4,0.1-0.5,0.2c-0.5,0.1-0.9,0-1.1-0.3c-0.2-0.4-0.2-0.8-0.2-1.2c0.7,0,1.3,0,1.9,0
			c0-0.6,0-1.2-0.4-1.8c-0.4-0.5-1-0.6-1.5-0.2c-0.2,0.1-0.3,0.3-0.4,0.5c-0.3,0.5-0.4,1.1-0.3,1.7c0,0.4,0.1,0.7,0.3,1.1
			c0.2,0.5,0.7,0.8,1.3,0.7c0.3,0,0.6-0.1,0.8-0.2C15.6,5.8,15.6,5.7,15.4,5.5z M13.9,2.6c0.2-0.3,0.6-0.3,0.8,0
			c0.2,0.3,0.2,0.7,0.2,1c-0.5,0-0.9,0-1.3,0C13.6,3.3,13.6,2.9,13.9,2.6z"/>
	</g>
</g>
<g>
	<g>
		<path class="st0" d="M17.2,8.9c0-0.1-0.1-0.1-0.1-0.1c-0.3,0-0.6,0-1,0c0,0.9,0,1.9,0,2.8c-0.7,0-1.4,0-2.1,0c0-0.9,0-1.9,0-2.8
			c-0.4,0-0.7,0-1.1,0c0,2.3,0,4.6,0,6.9c0.4,0,0.7,0,1.1,0c0-0.1,0-0.2,0-0.3c0-0.8,0-1.6,0-2.4c0-0.4,0-0.4,0.5-0.4
			c0.5,0,1,0,1.5,0c0,1.1,0,2.1,0,3.1c0.4,0,0.7,0,1.1,0c0-0.1,0-0.1,0-0.2C17.2,13.3,17.2,11.2,17.2,8.9C17.2,9,17.2,8.9,17.2,8.9z
			"/>
	</g>
</g>
<g>
	<g>
		<path class="st0" d="M17.8,3.6c0.4-0.4,0.8-0.9,1.1-1.3c0-0.1,0.1-0.1,0.1-0.2c-0.1,0-0.2,0-0.3,0c-0.3,0-0.4,0.1-0.6,0.2
			c-0.3,0.4-0.7,0.8-1,1.3c0,0-0.1,0.1-0.2,0.2c0-0.6,0-1.1,0-1.7c-0.2,0-0.4,0-0.6,0c0,1.3,0,2.6,0,3.8c0.2,0,0.4,0,0.6,0
			c0-0.5,0-0.9,0-1.3c0-0.2,0.1-0.3,0.1-0.5c0.1,0.1,0.2,0.1,0.2,0.2c0.3,0.5,0.6,1,1,1.4c0,0.1,0.1,0.1,0.2,0.2c0.2,0,0.4,0,0.6,0
			c-0.4-0.7-0.9-1.3-1.3-2C17.7,3.8,17.7,3.8,17.8,3.6z"/>
	</g>
</g>
<g>
	<g>
		<path class="st0" d="M32.5,8.8c-0.2,0-0.3,0-0.3,0.2c-0.4,1-0.9,1.9-1.3,2.9c-0.2,0.4-0.4,0.8-0.6,1.2c0,0,0,0-0.1,0
			c0-1.4,0-2.8,0-4.3c-0.4,0-0.7,0-1.1,0c0,2.3,0,4.6,0,6.9c0.4,0,0.7,0,1.1,0c0.7-1.5,1.4-3,2.1-4.5c0,1.5,0,3,0,4.5
			c0.4,0,0.8,0,1.3,0c0-2.3,0-4.6,0-6.9C33.2,8.8,32.8,8.8,32.5,8.8z"/>
	</g>
</g>
<g>
	<g>
		<path class="st0" d="M11.3,14.7c-0.3,0.1-0.7,0.2-1,0.3c-1.1,0.2-1.8-0.1-2.1-0.8c-0.2-0.6-0.2-1.2-0.2-1.8c1.2,0,2.3,0,3.5,0
			c0-0.5-0.1-1.1-0.1-1.6C11.2,10.1,11,9.5,10.5,9c-0.4-0.5-1-0.6-1.7-0.4C8.1,8.8,7.7,9.2,7.4,9.8c-0.8,1.5-0.9,3.1-0.3,4.7
			c0.2,0.5,0.5,0.9,1.1,1.2c0.9,0.4,2.4,0.3,3.3-0.4C11.5,15.1,11.4,14.9,11.3,14.7z M8.6,9.8C8.7,9.6,9,9.4,9.3,9.4
			c0.4,0,0.6,0.2,0.7,0.4c0.3,0.5,0.4,1.1,0.4,1.7c-0.8,0-1.6,0-2.4,0C8.1,11,8.2,10.4,8.6,9.8z"/>
	</g>
</g>
<g>
	<g>
		<path class="st0" d="M11.8,5.5c0-1.1,0-2.3,0-3.4c-0.7,0-1.3,0-2,0c0,0.3,0,0.5,0,0.7c0,0.8-0.1,1.6-0.4,2.4
			C9.3,5.4,9.3,5.6,8.9,5.5c0,0.4,0,0.8,0,1.2c0.2,0,0.4,0,0.6,0c0-0.3,0-0.5,0-0.8c0.7,0,1.5,0,2.2,0c0,0.3,0,0.5,0,0.8
			c0.2,0,0.4,0,0.6,0c0-0.4,0-0.8,0-1.2C12.1,5.5,12,5.5,11.8,5.5z M11.2,5.5c-0.5,0-0.9,0-1.4,0c0.6-0.9,0.5-1.9,0.6-2.9
			c0.3,0,0.5,0,0.8,0C11.2,3.6,11.2,4.5,11.2,5.5z"/>
	</g>
</g>
<g>
	<g>
		<path class="st0" d="M24.4,8.8c0,2.3,0,4.6,0,6.9c0.3,0,0.7,0,1,0c0-2.1,0-4.1,0-6.2c1.1,0,2.1,0,3.1,0c0-0.2,0-0.5,0-0.7
			C27.1,8.8,25.8,8.8,24.4,8.8z"/>
	</g>
</g>
</svg>
